<?xml version="1.0" standalone="no"?>
<svg width="400" height="400" version="1.1" xmlns="http://www.w3.org/2000/svg">
<polygon points="
	2 2
	297 2
	297 97
	197 97
	197 197
	102 197
	102 97
	2 97
	2 2" stroke="#E09823" fill="transparent" stroke-width="2"/>
<polygon points="
	397 2
	397 297
	302 297
	302 197
	202 197
	202 102
	302 102
	302 2
	397 2" stroke="#E09823" fill="transparent" stroke-width="2"/>
<polygon points="
	397 397
	102 397
	102 302
	202 302
	202 202
	297 202
	297 302
	397 302
	397 397" stroke="#E09823" fill="transparent" stroke-width="2"/>
<polygon points="
	2 397
	2 102
	97 102
	97 202
	197 202
	197 297
	97 297
	97 397
	2 397" stroke="#E09823" fill="transparent" stroke-width="2"/>
</svg>

